<?xml version="1.0" encoding="utf-8"?>
<!-- Generator: Adobe Illustrator 16.0.0, SVG Export Plug-In . SVG Version: 6.00 Build 0)  -->
<!DOCTYPE svg PUBLIC "-//W3C//DTD SVG 1.1//EN" "http://www.w3.org/Graphics/SVG/1.1/DTD/svg11.dtd">
<svg version="1.1" id="Layer_1" xmlns="http://www.w3.org/2000/svg" xmlns:xlink="http://www.w3.org/1999/xlink" x="0px" y="0px"
	 width="191.473px" height="73.35px" viewBox="0 0 191.473 73.35" enable-background="new 0 0 191.473 73.35" xml:space="preserve">
<g>
	<g>
		<g>
			<g>
				<path fill="none" stroke="#000000" stroke-width="3" stroke-linecap="round" stroke-linejoin="round" d="M83.326,62.051
					C38.272,59.753,3.565,45.381,3.565,27.992c0-9.443,10.24-17.999,26.817-24.213"/>
				<g>
					<path d="M96,62.371c-5.893-2.396-13.173-6.396-17.634-10.535l3.304,10.094l-3.918,9.869C82.459,67.943,89.971,64.397,96,62.371
						z"/>
				</g>
			</g>
		</g>
		<g>
			<g>
				<path fill="none" stroke="#000000" stroke-width="3" stroke-linecap="round" stroke-linejoin="round" d="M161.361,3.684
					c0.314,0.117,0.627,0.235,0.938,0.354"/>
				
					<path fill="none" stroke="#000000" stroke-width="3" stroke-linecap="round" stroke-linejoin="round" stroke-dasharray="1.9909,5.9728" d="
					M167.811,6.345c12.896,5.91,20.624,13.443,20.624,21.647c0,15.387-27.179,28.412-64.655,32.799"/>
				<path fill="none" stroke="#000000" stroke-width="3" stroke-linecap="round" stroke-linejoin="round" d="M120.815,61.117
					c-0.331,0.035-0.663,0.068-0.995,0.102"/>
			</g>
		</g>
	</g>
</g>
</svg>
